<svg width="502" height="447" viewBox="0 0 502 447" fill="none" xmlns="http://www.w3.org/2000/svg">
<g filter="url(#filter0_d_2010_1522)">
<path opacity="0.3" d="M262.46 359.401H294.022L415.144 297.628L308.819 242.285L232.825 279.108L262.46 359.401Z" fill="#F1F0F0"/>
<path d="M146.698 273.956L152.346 271.06L160.004 274.957L154.356 277.853L146.698 273.956Z" fill="#F1F0F0"/>
<path d="M161.166 271.784L166.801 268.889L161.03 277.213L155.382 280.109L161.166 271.784Z" fill="#FFC9EC"/>
<path d="M174.514 276.851L180.162 273.968L180.148 275.693L174.514 278.577V276.851Z" fill="#FF88DB"/>
<path d="M160.127 269.528L165.775 266.632L180.161 273.968L174.513 276.851L160.127 269.528Z" fill="#F1F0F0"/>
<path d="M174.514 276.851V278.577L161.167 271.784L155.382 280.109L146.698 275.681V273.956L154.356 277.853L160.127 269.528L174.514 276.851Z" fill="#FF88DB"/>
<path d="M167.663 263.423L173.311 260.527L180.969 264.424L175.321 267.32L167.663 263.423Z" fill="#F1F0F0"/>
<path d="M182.131 261.251L187.766 258.356L181.995 266.681L176.347 269.576L182.131 261.251Z" fill="#FFC9EC"/>
<path d="M195.479 266.319L201.126 263.423L201.113 265.148L195.479 268.044V266.319Z" fill="#FF88DB"/>
<path d="M181.092 258.995L186.74 256.099L201.126 263.423L195.478 266.319L181.092 258.995Z" fill="#F1F0F0"/>
<path d="M195.479 266.319V268.044L182.132 261.251L176.347 269.576L167.663 265.148V263.423L175.321 267.32L181.092 258.995L195.479 266.319Z" fill="#FF88DB"/>
<path d="M187.738 252.866L193.386 249.97L201.044 253.867L195.396 256.763L187.738 252.866Z" fill="#F1F0F0"/>
<path d="M202.207 250.694L207.854 247.799L202.07 256.124L196.436 259.019L202.207 250.694Z" fill="#FFC9EC"/>
<path d="M215.554 255.774L221.202 252.878V254.603L215.554 257.499V255.774Z" fill="#FF88DB"/>
<path d="M201.167 248.438L206.815 245.555L221.201 252.878L215.553 255.774L201.167 248.438Z" fill="#F1F0F0"/>
<path d="M215.554 255.774V257.499L202.207 250.694L196.436 259.019L187.738 254.591V252.866L195.396 256.763L201.167 248.438L215.554 255.774Z" fill="#FF88DB"/>
<path d="M125.98 285.406L131.615 282.522L139.273 286.419L133.625 289.303L125.98 285.406Z" fill="#F1F0F0"/>
<path d="M140.435 283.246L146.083 280.35L140.312 288.675L134.664 291.571L140.435 283.246Z" fill="#FFC9EC"/>
<path d="M153.796 288.313L159.43 285.418V287.143L153.782 290.039L153.796 288.313Z" fill="#FF88DB"/>
<path d="M139.409 280.99L145.057 278.094L159.43 285.418L153.796 288.313L139.409 280.99Z" fill="#F1F0F0"/>
<path d="M153.796 288.313L153.782 290.039L140.435 283.246L134.664 291.571L125.967 287.143L125.98 285.406L133.625 289.303L139.41 280.99L153.796 288.313Z" fill="#FF88DB"/>
<path d="M210.057 241.742L215.705 238.846L223.363 242.743L217.715 245.639L210.057 241.742Z" fill="#F1F0F0"/>
<path d="M224.525 239.57L230.173 236.675L224.388 245L218.754 247.895L224.525 239.57Z" fill="#FFC9EC"/>
<path d="M237.872 244.638L243.52 241.754V243.479L237.872 246.375V244.638Z" fill="#FF88DB"/>
<path d="M223.485 237.314L229.133 234.418L243.52 241.754L237.872 244.638L223.485 237.314Z" fill="#F1F0F0"/>
<path d="M237.872 244.638V246.375L224.525 239.57L218.754 247.895L210.057 243.467V241.742L217.715 245.639L223.486 237.314L237.872 244.638Z" fill="#FF88DB"/>
<path d="M231.513 230.992L237.161 228.096L244.805 231.993L239.171 234.889L231.513 230.992Z" fill="#F1F0F0"/>
<path d="M245.981 228.82L251.615 225.937L245.844 234.262L240.196 237.145L245.981 228.82Z" fill="#FFC9EC"/>
<path d="M259.328 233.9L264.976 231.004L264.962 232.729L259.328 235.625V233.9Z" fill="#FF88DB"/>
<path d="M244.941 226.576L250.589 223.681L264.976 231.004L259.328 233.9L244.941 226.576Z" fill="#F1F0F0"/>
<path d="M259.328 233.9V235.625L245.981 228.82L240.197 237.145L231.513 232.717V230.992L239.171 234.889L244.942 226.576L259.328 233.9Z" fill="#FF88DB"/>
<path d="M376.457 274.209L370.81 271.314L363.165 275.211L368.799 278.106L376.457 274.209Z" fill="#F1F0F0"/>
<path d="M362.002 272.037L356.354 269.142L362.125 277.467L367.773 280.362L362.002 272.037Z" fill="#FFC9EC"/>
<path d="M348.642 277.117L343.008 274.221V275.946L348.656 278.842L348.642 277.117Z" fill="#FF88DB"/>
<path d="M363.028 269.781L357.381 266.898L343.008 274.221L348.642 277.117L363.028 269.781Z" fill="#F1F0F0"/>
<path d="M348.642 277.117L348.655 278.842L362.002 272.037L367.773 280.362L376.471 275.934L376.457 274.209L368.799 278.106L363.028 269.781L348.642 277.117Z" fill="#FF88DB"/>
<path d="M355.493 263.676L349.845 260.781L342.2 264.678L347.834 267.573L355.493 263.676Z" fill="#F1F0F0"/>
<path d="M341.038 261.505L335.39 258.609L341.161 266.934L346.809 269.83L341.038 261.505Z" fill="#FFC9EC"/>
<path d="M327.677 266.584L322.043 263.688V265.414L327.691 268.309L327.677 266.584Z" fill="#FF88DB"/>
<path d="M342.064 259.248L336.416 256.365L322.043 263.688L327.677 266.584L342.064 259.248Z" fill="#F1F0F0"/>
<path d="M327.677 266.584L327.69 268.309L341.038 261.505L346.809 269.83L355.506 265.402L355.492 263.676L347.834 267.573L342.063 259.248L327.677 266.584Z" fill="#FF88DB"/>
<path d="M335.417 253.119L329.77 250.236L322.125 254.133L327.759 257.028L335.417 253.119Z" fill="#F1F0F0"/>
<path d="M320.949 250.96L315.314 248.064L321.085 256.389L326.733 259.285L320.949 250.96Z" fill="#FFC9EC"/>
<path d="M307.602 256.027L301.954 253.131L301.968 254.857L307.602 257.752V256.027Z" fill="#FF88DB"/>
<path d="M321.988 248.703L316.341 245.808L301.954 253.131L307.602 256.027L321.988 248.703Z" fill="#F1F0F0"/>
<path d="M307.602 256.027V257.752L320.949 250.96L326.733 259.285L335.417 254.857V253.119L327.759 257.028L321.988 248.703L307.602 256.027Z" fill="#FF88DB"/>
<path d="M397.189 285.671L391.541 282.775L383.883 286.672L389.531 289.568L397.189 285.671Z" fill="#F1F0F0"/>
<path d="M382.72 283.499L377.072 280.604L382.857 288.929L388.491 291.824L382.72 283.499Z" fill="#FFC9EC"/>
<path d="M369.373 288.567L363.726 285.683V287.408L369.373 290.304V288.567Z" fill="#FF88DB"/>
<path d="M383.76 281.243L378.112 278.348L363.726 285.683L369.373 288.567L383.76 281.243Z" fill="#F1F0F0"/>
<path d="M369.373 288.567V290.304L382.72 283.499L388.491 291.824L397.189 287.396V285.671L389.53 289.568L383.759 281.243L369.373 288.567Z" fill="#FF88DB"/>
<path d="M313.1 241.995L307.452 239.1L299.794 242.997L305.442 245.892L313.1 241.995Z" fill="#F1F0F0"/>
<path d="M298.631 239.824L292.997 236.94L298.768 245.265L304.416 248.149L298.631 239.824Z" fill="#FFC9EC"/>
<path d="M285.285 244.903L279.637 242.007L279.65 243.733L285.285 246.628V244.903Z" fill="#FF88DB"/>
<path d="M299.671 237.579L294.023 234.684L279.637 242.007L285.285 244.903L299.671 237.579Z" fill="#F1F0F0"/>
<path d="M285.284 244.903V246.628L298.631 239.824L304.416 248.149L313.1 243.721V241.995L305.442 245.892L299.671 237.579L285.284 244.903Z" fill="#FF88DB"/>
<path d="M291.643 231.257L286.009 228.362L278.351 232.259L283.998 235.154L291.643 231.257Z" fill="#F1F0F0"/>
<path d="M277.188 229.086L271.54 226.19L277.311 234.515L282.959 237.411L277.188 229.086Z" fill="#FFC9EC"/>
<path d="M263.828 234.153L258.193 231.257V232.995L263.841 235.878L263.828 234.153Z" fill="#FF88DB"/>
<path d="M278.214 226.829L272.58 223.934L258.193 231.257L263.828 234.153L278.214 226.829Z" fill="#F1F0F0"/>
<path d="M263.827 234.153L263.841 235.878L277.188 229.086L282.959 237.411L291.656 232.983L291.643 231.257L283.998 235.154L278.214 226.829L263.827 234.153Z" fill="#FF88DB"/>
<path d="M383.473 285.466L383.432 297.386L262.474 359.401L262.515 347.481L383.473 285.466Z" fill="#FF0ACE"/>
<path d="M262.515 347.481L262.474 359.401L140.723 297.386L140.764 285.466L262.515 347.481Z" fill="#4D003D"/>
<path d="M383.473 285.466L262.515 347.481L140.764 285.466L261.722 223.451L383.473 285.466Z" fill="#FF0ACE"/>
<path d="M354.481 282.438L354.467 288.398L262.392 335.609L262.405 329.648L354.481 282.438Z" fill="#FFC9EC"/>
<path d="M262.405 329.648L262.391 335.609L169.714 288.398L169.728 282.438L262.405 329.648Z" fill="#FF88DB"/>
<path d="M354.481 282.438L262.405 329.648L169.728 282.438L261.803 235.239L354.481 282.438Z" fill="white"/>
<path d="M130.835 316.22L125.188 313.324L130.89 299.16L136.538 302.056L130.835 316.22Z" fill="#FF88DB"/>
<path d="M136.538 302.056L130.89 299.16L145.276 291.836L150.91 294.72L136.538 302.056Z" fill="#F1F0F0"/>
<path d="M123.177 320.117L117.529 317.234L125.187 313.324L130.835 316.22L123.177 320.117Z" fill="#F1F0F0"/>
<path d="M123.177 321.854L117.529 318.959V317.234L123.177 320.117V321.854Z" fill="#FFC9EC"/>
<path d="M150.91 294.72L150.924 296.457L137.577 303.25L131.874 317.427L123.177 321.854V320.117L130.835 316.22L136.538 302.056L150.91 294.72Z" fill="#FF88DB"/>
<path d="M152.045 326.934L146.411 324.038L152.114 309.874L157.748 312.769L152.045 326.934Z" fill="#FF88DB"/>
<path d="M157.748 312.769L152.113 309.874L166.5 302.55L172.134 305.446L157.748 312.769Z" fill="#F1F0F0"/>
<path d="M144.387 330.843L138.753 327.947L146.411 324.038L152.045 326.934L144.387 330.843Z" fill="#F1F0F0"/>
<path d="M144.401 332.568L138.753 329.673V327.947L144.387 330.843L144.401 332.568Z" fill="#FFC9EC"/>
<path d="M172.134 305.446L172.148 307.171L158.787 313.964L153.098 328.14L144.4 332.568L144.387 330.843L152.045 326.934L157.747 312.769L172.134 305.446Z" fill="#FF88DB"/>
<path d="M173.106 337.768L167.458 334.873L173.161 320.696L178.809 323.592L173.106 337.768Z" fill="#FF88DB"/>
<path d="M178.808 323.592L173.16 320.696L187.547 313.373L193.194 316.268L178.808 323.592Z" fill="#F1F0F0"/>
<path d="M165.448 341.665L159.8 338.77L167.458 334.873L173.106 337.768L165.448 341.665Z" fill="#F1F0F0"/>
<path d="M165.448 343.391L159.813 340.495L159.8 338.77L165.448 341.665V343.391Z" fill="#FFC9EC"/>
<path d="M193.194 316.268V317.994L179.847 324.798L174.145 338.963L165.447 343.391V341.665L173.105 337.768L178.808 323.592L193.194 316.268Z" fill="#FF88DB"/>
<path d="M194.152 348.518L188.504 345.623L194.207 331.446L199.854 334.342L194.152 348.518Z" fill="#FF88DB"/>
<path d="M199.854 334.342L194.206 331.446L208.592 324.123L214.24 327.018L199.854 334.342Z" fill="#F1F0F0"/>
<path d="M186.494 352.415L180.846 349.52L188.504 345.623L194.152 348.518L186.494 352.415Z" fill="#F1F0F0"/>
<path d="M186.494 354.141L180.846 351.245V349.52L186.494 352.415V354.141Z" fill="#FFC9EC"/>
<path d="M214.24 327.018V328.744L200.893 335.548L195.191 349.713L186.493 354.141V352.415L194.151 348.518L199.854 334.342L214.24 327.018Z" fill="#FF88DB"/>
<path d="M215.458 359.184L209.811 356.288L215.513 342.124L221.161 345.019L215.458 359.184Z" fill="#FF88DB"/>
<path d="M221.161 345.019L215.513 342.124L229.899 334.8L235.547 337.696L221.161 345.019Z" fill="#F1F0F0"/>
<path d="M207.8 363.093L202.152 360.197L209.811 356.288L215.458 359.184L207.8 363.093Z" fill="#F1F0F0"/>
<path d="M207.814 364.818L202.166 361.923L202.152 360.197L207.8 363.093L207.814 364.818Z" fill="#FFC9EC"/>
<path d="M235.547 337.696L235.561 339.421L222.2 346.214L216.497 360.39L207.813 364.818L207.8 363.093L215.458 359.184L221.161 345.019L235.547 337.696Z" fill="#FF88DB"/>
<path d="M236.368 369.958L230.72 367.062L236.422 352.886L242.07 355.782L236.368 369.958Z" fill="#FF88DB"/>
<path d="M242.07 355.782L236.422 352.886L250.808 345.562L256.456 348.458L242.07 355.782Z" fill="#F1F0F0"/>
<path d="M228.709 373.855L223.062 370.959L230.72 367.062L236.368 369.958L228.709 373.855Z" fill="#F1F0F0"/>
<path d="M228.709 375.58L223.062 372.685V370.959L228.709 373.855V375.58Z" fill="#FFC9EC"/>
<path d="M256.456 348.458V350.183L243.109 356.988L237.406 371.152L228.709 375.58V373.855L236.367 369.958L242.07 355.782L256.456 348.458Z" fill="#FF88DB"/>
<path d="M393.825 316.413L399.473 313.529L393.77 299.353L388.122 302.249L393.825 316.413Z" fill="#FF88DB"/>
<path d="M388.122 302.249L393.77 299.353L379.383 292.029L373.735 294.925L388.122 302.249Z" fill="#F1F0F0"/>
<path d="M401.482 320.322L407.117 317.426L399.472 313.529L393.824 316.413L401.482 320.322Z" fill="#F1F0F0"/>
<path d="M401.469 322.047L407.117 319.152V317.427L401.482 320.322L401.469 322.047Z" fill="#FFC9EC"/>
<path d="M373.735 294.925V296.65L387.082 303.443L392.785 317.62L401.469 322.047L401.483 320.322L393.824 316.413L388.122 302.249L373.735 294.925Z" fill="#FF88DB"/>
<path d="M372.601 327.139L378.249 324.243L372.546 310.067L366.898 312.962L372.601 327.139Z" fill="#FF88DB"/>
<path d="M366.898 312.962L372.546 310.067L358.16 302.743L352.512 305.639L366.898 312.962Z" fill="#F1F0F0"/>
<path d="M380.259 331.036L385.907 328.14L378.248 324.243L372.601 327.139L380.259 331.036Z" fill="#F1F0F0"/>
<path d="M380.259 332.761L385.893 329.866L385.907 328.14L380.259 331.036V332.761Z" fill="#FFC9EC"/>
<path d="M352.512 305.639V307.364L365.859 314.169L371.561 328.333L380.259 332.761V331.036L372.601 327.139L366.898 312.962L352.512 305.639Z" fill="#FF88DB"/>
<path d="M351.554 337.961L357.188 335.066L351.486 320.901L345.852 323.797L351.554 337.961Z" fill="#FF88DB"/>
<path d="M345.851 323.797L351.485 320.901L337.099 313.566L331.465 316.461L345.851 323.797Z" fill="#F1F0F0"/>
<path d="M359.212 341.858L364.846 338.963L357.188 335.066L351.554 337.961L359.212 341.858Z" fill="#F1F0F0"/>
<path d="M359.198 343.584L364.846 340.7V338.963L359.212 341.858L359.198 343.584Z" fill="#FFC9EC"/>
<path d="M331.465 316.461L331.451 318.187L344.812 324.991L350.501 339.156L359.198 343.584L359.212 341.858L351.554 337.961L345.851 323.797L331.465 316.461Z" fill="#FF88DB"/>
<path d="M330.508 348.711L336.142 345.816L330.44 331.651L324.806 334.535L330.508 348.711Z" fill="#FF88DB"/>
<path d="M324.805 334.535L330.44 331.651L316.053 324.316L310.419 327.211L324.805 334.535Z" fill="#F1F0F0"/>
<path d="M338.166 352.608L343.8 349.713L336.142 345.816L330.508 348.711L338.166 352.608Z" fill="#F1F0F0"/>
<path d="M338.152 354.334L343.8 351.438V349.713L338.166 352.608L338.152 354.334Z" fill="#FFC9EC"/>
<path d="M310.419 327.211L310.405 328.937L323.766 335.741L329.455 349.906L338.152 354.334L338.166 352.608L330.508 348.711L324.805 334.535L310.419 327.211Z" fill="#FF88DB"/>
<path d="M309.188 359.389L314.836 356.493L309.133 342.317L303.485 345.212L309.188 359.389Z" fill="#FF88DB"/>
<path d="M303.485 345.212L309.133 342.317L294.747 334.993L289.099 337.889L303.485 345.212Z" fill="#F1F0F0"/>
<path d="M316.846 363.286L322.494 360.39L314.835 356.493L309.188 359.389L316.846 363.286Z" fill="#F1F0F0"/>
<path d="M316.846 365.011L322.494 362.116V360.39L316.846 363.286V365.011Z" fill="#FFC9EC"/>
<path d="M289.099 337.889V339.614L302.446 346.407L308.148 360.583L316.846 365.011V363.286L309.188 359.389L303.485 345.212L289.099 337.889Z" fill="#FF88DB"/>
<path d="M288.292 370.151L293.94 367.255L288.224 353.091L282.59 355.987L288.292 370.151Z" fill="#FF88DB"/>
<path d="M282.59 355.987L288.224 353.091L273.851 345.755L268.203 348.651L282.59 355.987Z" fill="#F1F0F0"/>
<path d="M295.95 374.048L301.584 371.152L293.94 367.255L288.292 370.151L295.95 374.048Z" fill="#F1F0F0"/>
<path d="M295.937 375.773L301.584 372.89V371.152L295.95 374.048L295.937 375.773Z" fill="#FFC9EC"/>
<path d="M268.203 348.651L268.189 350.376L281.55 357.181L287.239 371.345L295.937 375.773L295.95 374.048L288.292 370.151L282.59 355.987L268.203 348.651Z" fill="#FF88DB"/>
<path d="M201.7 282.438L206.227 284.742L261.913 313.107V251.563L201.7 282.438Z" fill="#FFC9EC"/>
<path d="M261.912 251.563V313.107L262.295 313.312L317.995 284.754L322.507 282.438L261.912 251.563Z" fill="#FF88DB"/>
<path d="M317.995 284.754L262.295 313.312L206.227 284.742L261.912 256.184L317.995 284.754Z" fill="#FF0ACE"/>
<path d="M317.995 284.754L262.295 313.312L206.227 284.742L261.912 256.184L317.995 284.754Z" fill="#FF0ACE"/>
<path d="M292.218 280.495L292.205 283.487L285.6 286.865V283.885L292.218 280.495Z" fill="#FFC9EC"/>
<path d="M285.599 283.885V286.865L256.047 271.82L256.061 268.84L285.599 283.885Z" fill="#FF88DB"/>
<path d="M292.218 280.495L285.599 283.885L256.061 268.84L262.666 265.45L292.218 280.495Z" fill="#F1F0F0"/>
<path d="M259.328 285.418V288.398C257.591 287.975 255.923 287.577 254.337 287.203C252.75 286.829 251.287 286.491 249.933 286.19C248.579 285.888 247.403 285.623 246.378 285.394C245.352 285.164 244.545 284.983 243.943 284.863V281.883C244.545 282.003 245.352 282.184 246.378 282.413C247.403 282.643 248.579 282.908 249.933 283.21C251.287 283.511 252.75 283.849 254.337 284.223C255.923 284.597 257.578 285.007 259.314 285.418H259.328Z" fill="#4D003D"/>
<mask id="mask0_2010_1522" style="mask-type:luminance" maskUnits="userSpaceOnUse" x="243" y="281" width="17" height="8">
<path d="M259.328 285.418V288.398C257.591 287.975 255.923 287.577 254.337 287.203C252.75 286.829 251.287 286.491 249.933 286.19C248.579 285.888 247.403 285.623 246.378 285.394C245.352 285.164 244.545 284.983 243.943 284.863V281.883C244.545 282.003 245.352 282.184 246.378 282.413C247.403 282.643 248.579 282.908 249.933 283.21C251.287 283.511 252.75 283.849 254.337 284.223C255.923 284.597 257.578 285.007 259.314 285.418H259.328Z" fill="white"/>
</mask>
<g mask="url(#mask0_2010_1522)">
<path d="M259.328 285.418V288.398C257.591 287.975 255.923 287.577 254.337 287.203C252.75 286.829 251.287 286.491 249.933 286.19C248.579 285.888 247.403 285.623 246.378 285.394C245.352 285.164 244.545 284.983 243.943 284.863V281.883C244.545 282.003 245.352 282.184 246.378 282.413C247.403 282.643 248.579 282.908 249.933 283.21C251.287 283.511 252.75 283.849 254.337 284.223C255.923 284.597 257.578 285.007 259.314 285.418H259.328Z" fill="#FF88DB"/>
</g>
<path d="M270.542 288.374V291.354C269.079 290.992 267.616 290.642 266.18 290.28V287.3C267.629 287.662 269.079 288.012 270.542 288.374Z" fill="#4D003D"/>
<mask id="mask1_2010_1522" style="mask-type:luminance" maskUnits="userSpaceOnUse" x="266" y="287" width="5" height="5">
<path d="M270.542 288.374V291.354C269.079 290.992 267.616 290.642 266.18 290.28V287.3C267.629 287.662 269.079 288.012 270.542 288.374Z" fill="white"/>
</mask>
<g mask="url(#mask1_2010_1522)">
<path d="M270.542 288.374V291.354C269.079 290.992 267.616 290.642 266.18 290.28V287.3C267.629 287.662 269.079 288.012 270.542 288.374Z" fill="#FF88DB"/>
</g>
<path d="M274.754 289.447V292.428C273.386 292.078 271.992 291.716 270.528 291.354V288.374C271.992 288.736 273.4 289.085 274.754 289.447Z" fill="#4D003D"/>
<mask id="mask2_2010_1522" style="mask-type:luminance" maskUnits="userSpaceOnUse" x="270" y="288" width="5" height="5">
<path d="M274.754 289.447V292.428C273.386 292.078 271.992 291.716 270.528 291.354V288.374C271.992 288.736 273.4 289.085 274.754 289.447Z" fill="white"/>
</mask>
<g mask="url(#mask2_2010_1522)">
<path d="M274.754 289.447V292.428C273.386 292.078 271.992 291.716 270.528 291.354V288.374C271.992 288.736 273.4 289.085 274.754 289.447Z" fill="#FF88DB"/>
</g>
<path d="M281.838 285.816L281.824 288.808L274.74 292.428L274.754 289.448L281.838 285.816Z" fill="#FFC9EC"/>
<path d="M266.193 287.312L266.18 290.292L254.706 296.168L254.72 293.188L266.193 287.312Z" fill="#FFC9EC"/>
<path d="M252.094 301.066V304.046C250.002 301.862 248.115 299.823 246.405 297.941C244.696 296.059 243.123 294.261 241.687 292.56C240.251 290.859 238.911 289.218 237.694 287.662C236.477 286.093 235.328 284.537 234.275 282.993V280.013C235.342 281.557 236.477 283.125 237.708 284.682C238.939 286.25 240.265 287.879 241.701 289.58C243.137 291.281 244.71 293.079 246.419 294.961C248.128 296.843 250.016 298.882 252.094 301.066Z" fill="#4D003D"/>
<mask id="mask3_2010_1522" style="mask-type:luminance" maskUnits="userSpaceOnUse" x="234" y="280" width="19" height="25">
<path d="M252.094 301.066V304.046C250.002 301.862 248.115 299.823 246.405 297.941C244.696 296.059 243.123 294.261 241.687 292.56C240.251 290.859 238.911 289.218 237.694 287.662C236.477 286.093 235.328 284.537 234.275 282.993V280.013C235.342 281.557 236.477 283.125 237.708 284.682C238.939 286.25 240.265 287.879 241.701 289.58C243.137 291.281 244.71 293.079 246.419 294.961C248.128 296.843 250.016 298.882 252.094 301.066Z" fill="white"/>
</mask>
<g mask="url(#mask3_2010_1522)">
<path d="M252.094 301.066V304.046C250.002 301.862 248.115 299.823 246.405 297.941C244.696 296.059 243.123 294.261 241.687 292.56C240.251 290.859 238.911 289.218 237.694 287.662C236.477 286.093 235.328 284.537 234.275 282.993V280.013C235.342 281.557 236.477 283.125 237.708 284.682C238.939 286.25 240.265 287.879 241.701 289.58C243.137 291.281 244.71 293.079 246.419 294.961C248.128 296.843 250.016 298.882 252.094 301.066Z" fill="#FF88DB"/>
</g>
<path d="M258.96 297.543L258.946 300.523L252.095 304.046V301.066L258.96 297.543Z" fill="#FFC9EC"/>
<path d="M270.542 288.374C269.079 288.012 267.629 287.662 266.194 287.3L254.734 293.176C255.445 293.912 256.142 294.66 256.853 295.396C257.564 296.144 258.276 296.855 258.973 297.531L252.108 301.054C250.029 298.87 248.142 296.831 246.433 294.949C244.723 293.067 243.151 291.269 241.715 289.568C240.279 287.867 238.939 286.226 237.722 284.67C236.504 283.101 235.356 281.545 234.303 280L240.566 276.791C243.575 277.334 246.624 277.925 249.701 278.529C252.778 279.144 255.992 279.807 259.329 280.543C262.665 281.267 266.18 282.076 269.872 282.932C273.565 283.801 277.558 284.754 281.838 285.816L274.768 289.447C273.414 289.098 272.006 288.736 270.556 288.374H270.542ZM250.932 289.725L259.329 285.418C257.592 284.995 255.937 284.597 254.351 284.223C252.764 283.849 251.301 283.511 249.947 283.21C248.593 282.908 247.417 282.643 246.392 282.413C245.366 282.184 244.559 282.003 243.958 281.883C244.245 282.172 244.614 282.582 245.065 283.101C245.517 283.62 246.05 284.223 246.652 284.899C247.253 285.575 247.91 286.335 248.634 287.155C249.346 287.976 250.111 288.832 250.932 289.725Z" fill="#F1F0F0"/>
<path d="M262.761 406.515L62.623 304.565L261.476 202.615L461.614 304.565L262.761 406.515ZM67.9291 304.553L262.748 403.789L456.294 304.553L261.476 205.317L67.9291 304.553Z" fill="#FF0ACE"/>
<path d="M93.666 319.019L78.8693 326.56C78.6505 326.668 78.377 326.668 78.1718 326.56L62.9922 318.826L13.7338 343.922L9.13887 346.262C9.02947 346.322 8.90639 346.347 8.78331 346.347C8.53716 346.347 8.30468 346.238 8.1816 346.033C7.99014 345.743 8.09955 345.357 8.44143 345.188L12.3115 343.222L62.6367 317.583C62.8555 317.475 63.1153 317.475 63.3341 317.583L78.5137 325.317L92.2574 318.319L93.666 319.031V319.019Z" fill="#FF0ACE"/>
<path d="M212.983 378.609L210.644 379.791L197.174 386.656C196.955 386.765 196.695 386.765 196.477 386.656L181.311 378.922L162.151 388.683L160.743 389.395L131.642 404.223L127.444 406.358C127.334 406.419 127.211 406.443 127.088 406.443C126.842 406.443 126.609 406.334 126.486 406.129C126.295 405.828 126.404 405.454 126.746 405.285L130.479 403.378L159.334 388.683L160.743 387.971L180.955 377.68C181.174 377.571 181.434 377.571 181.652 377.68L196.818 385.413L209.236 379.091L211.574 377.897L212.983 378.609Z" fill="#FF0ACE"/>
<path d="M166.938 355.154L164.599 356.349L151.512 363.021C151.293 363.129 151.033 363.129 150.814 363.021L135.648 355.287L116.12 365.229L114.712 365.94L86.7456 380.189L81.7951 382.711C81.6857 382.759 81.5626 382.795 81.4396 382.795C81.1934 382.795 80.9609 382.687 80.8378 382.482C80.6464 382.18 80.7558 381.806 81.0977 381.637L85.6242 379.333L113.317 365.229L114.725 364.517L135.307 354.032C135.525 353.924 135.785 353.924 136.004 354.032L151.17 361.766L163.204 355.637L165.543 354.442L166.951 355.154H166.938Z" fill="#FF0ACE"/>
<path d="M130.206 336.441L127.867 337.636L78.3761 362.84L74.6564 364.734C74.547 364.794 74.424 364.818 74.3009 364.818C74.0547 364.818 73.8223 364.71 73.6992 364.505C73.5077 364.215 73.6171 363.829 73.959 363.66L77.0496 362.08L126.472 336.9L128.811 335.705L130.219 336.417L130.206 336.441Z" fill="#FF0ACE"/>
<path d="M229.926 387.235L227.588 388.418L178.78 413.284L175.006 415.202C174.897 415.251 174.774 415.287 174.651 415.287C174.404 415.287 174.172 415.178 174.049 414.973C173.857 414.671 173.967 414.297 174.309 414.129L177.372 412.572L226.193 387.694L228.531 386.499L229.94 387.211L229.926 387.235Z" fill="#FF0ACE"/>
<path d="M182.692 363.178L180.353 364.372L147.382 381.167L145.974 381.878L131.027 389.492L127.115 391.482C127.006 391.543 126.883 391.567 126.76 391.567C126.514 391.567 126.281 391.458 126.158 391.253C125.967 390.963 126.076 390.577 126.418 390.408L129.659 388.756L144.592 381.155L145.987 380.443L178.959 363.648L181.297 362.454L182.706 363.165L182.692 363.178Z" fill="#FF0ACE"/>
<path d="M181.967 398.782L163.478 408.192L158.308 410.823L157.611 409.749L162.26 407.384L179.163 398.782L160.756 389.395L159.348 388.683L145.987 381.878L144.592 381.154L114.711 365.94L113.303 365.228L101.159 359.039L135.279 341.412L137.604 340.205L138.999 340.917L136.674 342.124L103.949 359.027L114.711 364.517L116.106 365.228L145.987 380.443L147.382 381.154L160.756 387.971L162.151 388.683L181.967 398.782Z" fill="#FF0ACE"/>
<path d="M13.1317 343.56C15.224 344.621 15.224 346.347 13.1317 347.408C11.0394 348.47 7.66156 348.47 5.56924 347.408C3.47692 346.347 3.47692 344.621 5.56924 343.56C7.66156 342.498 11.0394 342.498 13.1317 343.56Z" fill="#FF0ACE"/>
<path d="M104.988 341.701C104.988 341.919 104.852 342.124 104.633 342.232L62.2258 363.841L58.342 365.82C58.2326 365.88 58.1095 365.904 57.9864 365.904C57.7403 365.904 57.5078 365.796 57.3847 365.59C57.1933 365.301 57.3027 364.915 57.6446 364.746L60.8719 363.105L102.896 341.701L87.2926 333.751C87.0738 333.642 86.9371 333.437 86.9371 333.22C86.9371 333.003 87.0738 332.785 87.2926 332.689L102.732 324.822L105.071 323.628L106.479 324.34L104.141 325.534L89.0567 333.22L104.66 341.159C104.879 341.267 105.016 341.472 105.016 341.689L104.988 341.701Z" fill="#FF0ACE"/>
<path d="M61.5145 363.382C63.6068 364.444 63.6068 366.17 61.5145 367.231C59.4222 368.293 56.0444 368.293 53.9521 367.231C51.8597 366.17 51.8597 364.444 53.9521 363.382C56.0444 362.321 59.4222 362.321 61.5145 363.382Z" fill="#FF0ACE"/>
<path d="M239.062 409.158C239.062 409.375 238.925 409.58 238.706 409.688L197.407 430.73L192.415 433.276C192.306 433.324 192.183 433.36 192.06 433.36C191.827 433.36 191.581 433.252 191.458 433.047C191.266 432.745 191.39 432.371 191.718 432.202L196.067 429.994L236.969 409.158L221.366 401.207C221.147 401.098 221.01 400.893 221.01 400.676C221.01 400.459 221.147 400.254 221.366 400.145L235.971 392.701L238.31 391.518L239.704 392.23L237.366 393.413L223.116 400.676L238.72 408.627C238.939 408.735 239.075 408.94 239.075 409.158H239.062Z" fill="#FF0ACE"/>
<path d="M196.654 430.247C198.746 431.309 198.746 433.035 196.654 434.096C194.562 435.158 191.184 435.158 189.092 434.096C186.999 433.035 186.999 431.309 189.092 430.247C191.184 429.186 194.562 429.186 196.654 430.247Z" fill="#FF0ACE"/>
<path d="M77.5702 362.321C79.6625 363.383 79.6625 365.108 77.5702 366.17C75.4778 367.231 72.1 367.231 70.0077 366.17C67.9154 365.108 67.9154 363.383 70.0077 362.321C72.1 361.259 75.4778 361.259 77.5702 362.321Z" fill="#FF0ACE"/>
<path d="M85.5975 379.321C87.6898 380.382 87.6898 382.108 85.5975 383.169C83.5052 384.231 80.1274 384.231 78.0351 383.169C75.9427 382.108 75.9427 380.382 78.0351 379.321C80.1274 378.259 83.5052 378.259 85.5975 379.321Z" fill="#FF0ACE"/>
<path d="M130.356 389.069C132.449 390.131 132.449 391.856 130.356 392.918C128.264 393.98 124.886 393.98 122.794 392.918C120.702 391.856 120.702 390.131 122.794 389.069C124.886 388.008 128.264 388.008 130.356 389.069Z" fill="#FF0ACE"/>
<path d="M130.561 403.403C132.654 404.464 132.654 406.19 130.561 407.251C128.469 408.313 125.091 408.313 122.999 407.251C120.907 406.19 120.907 404.464 122.999 403.403C125.091 402.341 128.469 402.341 130.561 403.403Z" fill="#FF0ACE"/>
<path d="M162.466 407.481C164.558 408.542 164.558 410.268 162.466 411.329C160.373 412.391 156.996 412.391 154.903 411.329C152.811 410.268 152.811 408.542 154.903 407.481C156.996 406.419 160.373 406.419 162.466 407.481Z" fill="#FF0ACE"/>
<path d="M178.192 412.934C180.285 413.996 180.285 415.721 178.192 416.783C176.1 417.845 172.722 417.845 170.63 416.783C168.537 415.721 168.537 413.996 170.63 412.934C172.722 411.872 176.1 411.872 178.192 412.934Z" fill="#FF0ACE"/>
<path d="M472.635 361.645C472.498 361.838 472.266 361.959 472.033 361.959C471.91 361.959 471.801 361.935 471.678 361.874L467.411 359.703L425.387 338.287C425.168 338.179 425.031 337.973 425.031 337.756C425.031 337.539 425.168 337.334 425.387 337.225L440.99 329.274L426.987 322.144L424.648 320.962L426.043 320.25L428.382 321.432L442.741 328.744C442.96 328.852 443.096 329.057 443.096 329.274C443.096 329.492 442.96 329.697 442.741 329.805L427.137 337.756L468.984 359.075L472.375 360.801C472.717 360.97 472.827 361.344 472.635 361.645Z" fill="#FF0ACE"/>
<path d="M327.458 435.785C327.322 435.978 327.089 436.099 326.857 436.099C326.733 436.099 326.624 436.075 326.501 436.015L322.371 433.915L280.21 412.439C279.991 412.331 279.855 412.126 279.855 411.908C279.855 411.691 279.991 411.486 280.21 411.378L295.814 403.427L282.111 396.441L279.786 395.259L281.181 394.547L283.506 395.729L297.564 402.896C297.783 403.004 297.92 403.209 297.92 403.427C297.92 403.644 297.783 403.849 297.564 403.958L281.961 411.908L323.998 433.324L327.198 434.953C327.54 435.122 327.65 435.496 327.458 435.797V435.785Z" fill="#FF0ACE"/>
<path d="M399.035 395.97C398.898 396.163 398.665 396.284 398.433 396.284C398.31 396.284 398.187 396.26 398.077 396.2L394.207 394.221L362.303 377.969C362.084 377.861 361.947 377.656 361.947 377.438C361.947 377.221 362.084 377.016 362.303 376.907L374.132 370.887L363.479 365.361L362.084 364.637L353.154 360.004L350.843 358.798L352.238 358.086L354.549 359.28L363.479 363.913L364.874 364.637L375.882 370.344C376.101 370.453 376.224 370.658 376.224 370.875C376.224 371.092 376.087 371.297 375.869 371.406L364.053 377.426L396.094 393.75L398.775 395.114C399.103 395.283 399.226 395.657 399.035 395.958V395.97Z" fill="#FF0ACE"/>
<path d="M456.978 394.342C456.841 394.535 456.608 394.655 456.376 394.655C456.253 394.655 456.143 394.631 456.02 394.571L451.89 392.472L393.729 362.84C393.51 362.731 393.374 362.526 393.374 362.309C393.374 362.092 393.51 361.887 393.729 361.778L415.09 350.895L392.95 339.614L390.611 338.432L392.006 337.72L394.345 338.902L416.854 350.364C417.073 350.473 417.21 350.678 417.21 350.895C417.21 351.112 417.073 351.317 416.854 351.426L395.493 362.309L453.518 391.868L456.718 393.497C457.06 393.666 457.169 394.04 456.978 394.342Z" fill="#FF0ACE"/>
<path d="M394.563 409.809C394.44 410.002 394.194 410.123 393.961 410.123C393.838 410.123 393.729 410.099 393.606 410.038L390.05 408.229L348.888 387.259L326.173 398.83C325.954 398.938 325.681 398.938 325.475 398.83L301.366 386.548L299.041 385.365L300.436 384.653L302.761 385.836L325.831 397.587L348.546 386.017C348.764 385.908 349.038 385.908 349.243 386.017L391.459 407.517L394.303 408.965C394.645 409.133 394.754 409.507 394.563 409.809Z" fill="#FF0ACE"/>
<path d="M456.334 360.571C456.197 360.765 455.965 360.885 455.732 360.885C455.609 360.885 455.5 360.861 455.377 360.801L451.37 358.762L403.315 334.282L400.977 333.087L402.371 332.375L404.71 333.558L452.874 358.086L456.074 359.715C456.416 359.884 456.526 360.258 456.334 360.559V360.571Z" fill="#FF0ACE"/>
<path d="M493.477 341.376C493.34 341.569 493.108 341.689 492.875 341.689C492.752 341.689 492.643 341.665 492.519 341.605L488.116 339.361L440.608 315.158L438.27 313.976L439.664 313.264L442.003 314.446L489.456 338.625L493.217 340.543C493.559 340.712 493.668 341.086 493.477 341.388V341.376Z" fill="#FF0ACE"/>
<path d="M413.175 382.24C413.038 382.433 412.806 382.554 412.573 382.554C412.45 382.554 412.327 382.53 412.218 382.47L407.869 380.262L371.041 361.5L369.633 360.789L360.593 356.18L358.255 354.997L359.65 354.285L361.988 355.468L371.028 360.077L372.436 360.789L409.127 379.477L412.901 381.396C413.23 381.565 413.353 381.939 413.161 382.24H413.175Z" fill="#FF0ACE"/>
<path d="M343.458 418.098C343.335 418.291 343.089 418.412 342.856 418.412C342.733 418.412 342.624 418.387 342.501 418.327L338.467 416.276L290.781 391.989L288.456 390.807L289.851 390.095L292.176 391.277L339.971 415.612L343.212 417.265C343.554 417.434 343.663 417.82 343.472 418.11L343.458 418.098Z" fill="#FF0ACE"/>
<path d="M394.891 349.351L372.436 360.789L371.041 361.5L364.874 364.637L363.465 365.349L335.335 379.683L331.123 381.83L330.426 380.756L334.173 378.85L362.084 364.637L363.479 363.913L369.633 360.789L371.041 360.065L392.088 349.351L382.966 344.706L380.642 343.523L382.036 342.799L384.375 343.994L394.891 349.351Z" fill="#FF0ACE"/>
<path d="M330.029 433.855C332.121 434.917 332.121 436.642 330.029 437.704C327.937 438.765 324.559 438.765 322.467 437.704C320.374 436.642 320.374 434.917 322.467 433.855C324.559 432.793 327.937 432.793 330.029 433.855Z" fill="#FF0ACE"/>
<path d="M346.439 416.023C348.532 417.084 348.532 418.81 346.439 419.871C344.347 420.933 340.969 420.933 338.877 419.871C336.785 418.81 336.785 417.084 338.877 416.023C340.969 414.961 344.347 414.961 346.439 416.023Z" fill="#FF0ACE"/>
<path d="M334.241 378.886C336.333 379.948 336.333 381.673 334.241 382.735C332.149 383.797 328.771 383.797 326.679 382.735C324.586 381.673 324.586 379.948 326.679 378.886C328.771 377.825 332.149 377.825 334.241 378.886Z" fill="#FF0ACE"/>
<path d="M398.228 407.855C400.321 408.916 400.321 410.642 398.228 411.703C396.136 412.765 392.758 412.765 390.666 411.703C388.574 410.642 388.574 408.916 390.666 407.855C392.758 406.793 396.136 406.793 398.228 407.855Z" fill="#FF0ACE"/>
<path d="M401.181 394.474C403.274 395.536 403.274 397.261 401.181 398.323C399.089 399.385 395.711 399.385 393.619 398.323C391.527 397.261 391.527 395.536 393.619 394.474C395.711 393.413 399.089 393.413 401.181 394.474Z" fill="#FF0ACE"/>
<path d="M416.334 379.634C418.426 380.696 418.426 382.421 416.334 383.483C414.242 384.545 410.864 384.545 408.771 383.483C406.679 382.421 406.679 380.696 408.771 379.634C410.864 378.573 414.242 378.573 416.334 379.634Z" fill="#FF0ACE"/>
<path d="M459.589 392.387C461.681 393.449 461.681 395.174 459.589 396.236C457.496 397.298 454.119 397.298 452.026 396.236C449.934 395.174 449.934 393.449 452.026 392.387C454.119 391.325 457.496 391.325 459.589 392.387Z" fill="#FF0ACE"/>
<path d="M459.343 358.52C461.435 359.582 461.435 361.307 459.343 362.369C457.25 363.431 453.873 363.431 451.78 362.369C449.688 361.307 449.688 359.582 451.78 358.52C453.873 357.459 457.25 357.459 459.343 358.52Z" fill="#FF0ACE"/>
<path d="M475.22 359.57C477.312 360.632 477.312 362.357 475.22 363.419C473.127 364.48 469.749 364.48 467.657 363.419C465.565 362.357 465.565 360.632 467.657 359.57C469.749 358.508 473.127 358.508 475.22 359.57Z" fill="#FF0ACE"/>
<path d="M496.431 338.866C498.523 339.928 498.523 341.653 496.431 342.715C494.338 343.777 490.96 343.777 488.868 342.715C486.776 341.653 486.776 339.928 488.868 338.866C490.96 337.805 494.338 337.805 496.431 338.866Z" fill="#FF0ACE"/>
<path d="M210.945 190.139C210.945 190.357 210.822 190.562 210.604 190.67L199.499 196.534L198.118 197.27L184.183 204.642L182.802 205.366L169.728 212.279L206.446 230.98L208.785 232.162L207.39 232.874L205.051 231.692L168.005 212.822C167.786 212.713 167.663 212.508 167.649 212.291C167.649 212.074 167.772 211.869 167.991 211.76L181.407 204.666L182.788 203.93L196.723 196.558L198.104 195.822L208.853 190.139L188.244 179.643L184.757 177.869C184.429 177.7 184.306 177.326 184.497 177.025C184.689 176.723 185.113 176.627 185.455 176.795L189.585 178.895L210.576 189.584C210.795 189.693 210.918 189.898 210.932 190.115L210.945 190.139Z" fill="#FF0ACE"/>
<path d="M85.4198 294.237L49.3581 275.874L64.9616 267.923C65.1804 267.815 65.3171 267.61 65.3171 267.392C65.3171 267.175 65.1804 266.97 64.9616 266.862L43.7785 256.075L39.84 254.073C39.4982 253.904 39.0742 254 38.8828 254.302C38.6913 254.591 38.8007 254.977 39.1426 255.146L42.1375 256.679L63.2111 267.404L47.6076 275.355C47.3888 275.464 47.2521 275.669 47.2521 275.886C47.2521 276.103 47.3888 276.309 47.6076 276.417L84.025 294.961L85.4198 294.249V294.237Z" fill="#FF0ACE"/>
<path d="M158.788 257.813L157.393 258.525L155.054 257.342L129.974 244.565C129.755 244.457 129.618 244.252 129.618 244.034C129.618 243.817 129.755 243.6 129.974 243.504L141.803 237.471L112.852 222.45L110.103 221.026C109.762 220.857 109.652 220.471 109.857 220.182C110.049 219.892 110.486 219.796 110.815 219.964L114.315 221.786L143.54 236.952C143.758 237.061 143.895 237.266 143.881 237.483C143.881 237.7 143.745 237.905 143.526 238.014L131.71 244.034L156.435 256.63L158.774 257.825L158.788 257.813Z" fill="#FF0ACE"/>
<path d="M190.131 241.742L188.736 242.454L186.398 241.271L147.382 221.4C147.163 221.292 147.027 221.086 147.027 220.869C147.027 220.652 147.163 220.447 147.382 220.338L164.599 211.567L142.719 200.419L138.097 198.054C137.755 197.885 137.645 197.511 137.837 197.21C138.028 196.908 138.452 196.811 138.794 196.98L144.073 199.671L166.35 211.024C166.569 211.133 166.705 211.338 166.705 211.555C166.705 211.772 166.569 211.977 166.35 212.086L149.133 220.857L187.793 240.548L190.131 241.742Z" fill="#FF0ACE"/>
<path d="M141.132 266.862L139.737 267.573L137.399 266.391L111.922 253.421L93.7064 262.699C93.4876 262.808 93.2277 262.808 93.0089 262.699L68.366 250.151L65.3301 248.607C64.9882 248.438 64.8788 248.064 65.0703 247.762C65.2617 247.461 65.6857 247.364 66.0275 247.533L69.6515 249.379L93.3508 261.456L111.566 252.178C111.785 252.07 112.059 252.07 112.264 252.178L138.78 265.679L141.119 266.862H141.132Z" fill="#FF0ACE"/>
<path d="M223.472 224.646L222.077 225.358L219.739 224.163L182.816 205.354L181.421 204.654L169.988 198.826L167.021 197.318C166.679 197.149 166.569 196.775 166.761 196.474C166.952 196.172 167.376 196.076 167.718 196.244L171.547 198.199L182.802 203.93L184.197 204.642L221.147 223.463L223.486 224.658L223.472 224.646Z" fill="#FF0ACE"/>
<path d="M239.035 216.659L237.64 217.37L235.301 216.188L198.118 197.27L196.723 196.558L153.714 174.672L151.485 173.538C151.143 173.369 151.034 172.995 151.226 172.693C151.417 172.392 151.841 172.295 152.183 172.464L155.451 174.129L198.091 195.834L199.486 196.546L236.683 215.476L239.021 216.659H239.035Z" fill="#FF0ACE"/>
<path d="M182.542 245.627L181.147 246.339L178.808 245.156L129.522 220.049L126.227 218.36C125.885 218.191 125.775 217.805 125.967 217.515C126.158 217.214 126.582 217.117 126.924 217.286L131.054 219.385L180.203 244.42L182.542 245.603V245.627Z" fill="#FF0ACE"/>
<path d="M113.276 281.147L111.881 281.859L109.543 280.676L87.5392 269.468L82.2605 266.777C81.9323 266.608 81.8092 266.234 82.0143 265.933C82.2058 265.643 82.6297 265.534 82.9716 265.703L89.0161 268.78L110.951 279.952L113.29 281.135L113.276 281.147Z" fill="#FF0ACE"/>
<path d="M43.6688 252.263C45.7611 253.325 45.7611 255.05 43.6688 256.112C41.5765 257.173 38.1987 257.173 36.1064 256.112C34.014 255.05 34.014 253.325 36.1064 252.263C38.1987 251.201 41.5765 251.201 43.6688 252.263Z" fill="#FF0ACE"/>
<path d="M88.5106 265.221C90.6029 266.282 90.6029 268.008 88.5106 269.07C86.4183 270.131 83.0405 270.131 80.9481 269.07C78.8558 268.008 78.8558 266.282 80.9481 265.221C83.0405 264.159 86.4183 264.159 88.5106 265.221Z" fill="#FF0ACE"/>
<path d="M68.7899 246.098C70.8822 247.159 70.8822 248.885 68.7899 249.946C66.6976 251.008 63.3198 251.008 61.2274 249.946C59.1351 248.885 59.1351 247.159 61.2274 246.098C63.3198 245.036 66.6976 245.036 68.7899 246.098Z" fill="#FF0ACE"/>
<path d="M113.837 218.191C115.929 219.253 115.929 220.978 113.837 222.04C111.744 223.101 108.367 223.101 106.274 222.04C104.182 220.978 104.182 219.253 106.274 218.191C108.367 217.129 111.744 217.129 113.837 218.191Z" fill="#FF0ACE"/>
<path d="M77.078 236.952C79.1703 238.014 79.1703 239.739 77.078 240.801C74.9857 241.863 71.6079 241.863 69.5155 240.801C67.4232 239.739 67.4232 238.014 69.5155 236.952C71.6079 235.89 74.9857 235.89 77.078 236.952Z" fill="#FF0ACE"/>
<path d="M150.363 262.132L148.968 262.844L146.63 261.661L88.2773 231.933L77.6926 237.326L73.6994 239.353C73.3712 239.522 72.9336 239.425 72.7421 239.124C72.5507 238.834 72.6738 238.448 73.002 238.279L76.284 236.614L87.9217 230.69C88.1405 230.582 88.4004 230.582 88.6192 230.69L148.025 260.95L150.363 262.132Z" fill="#FF0ACE"/>
<path d="M247.868 212.134L246.473 212.846L244.135 211.664L218.781 198.742C218.562 198.633 218.425 198.428 218.425 198.211C218.425 197.994 218.562 197.789 218.781 197.68L230.61 191.648L201.659 176.627L198.911 175.203C198.582 175.034 198.473 174.648 198.665 174.358C198.856 174.057 199.294 173.96 199.622 174.141L203.123 175.951L232.347 191.129C232.566 191.237 232.689 191.443 232.689 191.66C232.689 191.877 232.552 192.082 232.333 192.191L220.518 198.211L245.53 210.952L247.868 212.134Z" fill="#FF0ACE"/>
<path d="M202.631 172.38C204.723 173.441 204.723 175.167 202.631 176.228C200.538 177.29 197.161 177.29 195.068 176.228C192.976 175.167 192.976 173.441 195.068 172.38C197.161 171.318 200.538 171.318 202.631 172.38Z" fill="#FF0ACE"/>
<path d="M130.725 215.742C132.818 216.803 132.818 218.529 130.725 219.591C128.633 220.652 125.255 220.652 123.163 219.591C121.071 218.529 121.071 216.803 123.163 215.742C125.255 214.68 128.633 214.68 130.725 215.742Z" fill="#FF0ACE"/>
<path d="M143.335 196.281C145.427 197.342 145.427 199.068 143.335 200.129C141.242 201.191 137.865 201.191 135.772 200.129C133.68 199.068 133.68 197.342 135.772 196.281C137.865 195.219 141.242 195.219 143.335 196.281Z" fill="#FF0ACE"/>
<path d="M155.642 170.208C157.735 171.27 157.735 172.995 155.642 174.057C153.55 175.118 150.172 175.118 148.08 174.057C145.988 172.995 145.988 171.27 148.08 170.208C150.172 169.146 153.55 169.146 155.642 170.208Z" fill="#FF0ACE"/>
<path d="M188.832 175.553C190.924 176.614 190.924 178.34 188.832 179.402C186.74 180.463 183.362 180.463 181.269 179.402C179.177 178.34 179.177 176.614 181.269 175.553C183.362 174.491 186.74 174.491 188.832 175.553Z" fill="#FF0ACE"/>
<path d="M171.273 194.495C173.366 195.557 173.366 197.282 171.273 198.344C169.181 199.406 165.803 199.406 163.711 198.344C161.619 197.282 161.619 195.557 163.711 194.495C165.803 193.433 169.181 193.433 171.273 194.495Z" fill="#FF0ACE"/>
<path d="M447.022 261.082C447.022 261.3 446.885 261.505 446.666 261.613L411.821 279.361L409.483 280.543L408.074 279.832L410.413 278.637L444.929 261.058L413.257 244.312L411.89 243.576L404.081 239.45C403.862 239.341 403.739 239.136 403.739 238.919C403.739 238.702 403.876 238.497 404.095 238.388L425.086 227.698L429.216 225.599C429.545 225.43 429.982 225.527 430.174 225.828C430.365 226.13 430.256 226.504 429.927 226.673L426.44 228.446L405.832 238.943L413.285 242.888L414.666 243.612L446.693 260.539C446.899 260.66 447.035 260.853 447.035 261.07L447.022 261.082Z" fill="#FF0ACE"/>
<path d="M413.627 222.088L410.878 223.512L381.928 238.533L393.757 244.553C393.976 244.662 394.113 244.867 394.113 245.084C394.113 245.301 393.976 245.506 393.757 245.615L369.675 257.885L367.336 259.068L365.941 258.356L368.28 257.173L392.007 245.084L380.191 239.064C379.972 238.955 379.836 238.75 379.836 238.533C379.836 238.316 379.972 238.11 380.177 238.002L409.402 222.824L412.902 221.014C413.244 220.845 413.668 220.942 413.86 221.231C414.051 221.521 413.942 221.907 413.614 222.076L413.627 222.088Z" fill="#FF0ACE"/>
<path d="M383.732 195.279L379.233 197.572L356.641 209.082L374.255 218.046C374.474 218.155 374.611 218.36 374.611 218.577C374.611 218.794 374.474 218.999 374.255 219.108L333.913 239.655L331.575 240.849L330.166 240.137L332.505 238.955L372.505 218.577L354.891 209.613C354.672 209.504 354.535 209.299 354.535 209.082C354.535 208.865 354.672 208.659 354.891 208.551L378.016 196.775L383.048 194.218C383.39 194.049 383.814 194.145 384.006 194.447C384.197 194.748 384.088 195.122 383.746 195.291L383.732 195.279Z" fill="#FF0ACE"/>
<path d="M484.683 273.304L481.675 274.837L461.34 285.189C461.121 285.297 460.861 285.297 460.642 285.189L445.34 277.395L426.645 286.914L424.307 288.108L422.898 287.397L425.237 286.214L444.984 276.164C445.203 276.055 445.476 276.055 445.682 276.164L460.984 283.958L480.13 274.209L483.972 272.255C484.314 272.086 484.738 272.182 484.93 272.484C485.121 272.786 485.012 273.16 484.67 273.329L484.683 273.304Z" fill="#FF0ACE"/>
<path d="M355.316 198.597L352.348 200.105L304.307 224.585L301.968 225.768L300.56 225.056L302.898 223.874L350.803 199.478L354.632 197.523C354.974 197.354 355.398 197.451 355.589 197.753C355.78 198.054 355.671 198.428 355.329 198.597H355.316Z" fill="#FF0ACE"/>
<path d="M372.245 174.624L370.016 175.758L289.168 216.888L286.829 218.07L285.421 217.358L287.759 216.176L368.266 175.215L371.534 173.55C371.876 173.381 372.3 173.478 372.492 173.779C372.683 174.081 372.574 174.455 372.232 174.624H372.245Z" fill="#FF0ACE"/>
<path d="M397.517 219.446L394.207 221.123L345.852 245.76L343.513 246.942L342.104 246.23L344.443 245.048L392.676 220.483L396.819 218.372C397.161 218.203 397.585 218.3 397.777 218.601C397.968 218.903 397.859 219.277 397.517 219.446Z" fill="#FF0ACE"/>
<path d="M345.114 218.891L339.835 221.581L319.09 232.15L316.751 233.333L315.343 232.621L317.681 231.438L338.358 220.906L344.389 217.829C344.731 217.66 345.155 217.757 345.346 218.058C345.538 218.36 345.428 218.734 345.087 218.903L345.114 218.891Z" fill="#FF0ACE"/>
<path d="M338.864 217.322C336.772 218.384 336.772 220.109 338.864 221.171C340.956 222.233 344.334 222.233 346.427 221.171C348.519 220.109 348.519 218.384 346.427 217.322C344.334 216.261 340.956 216.261 338.864 217.322Z" fill="#FF0ACE"/>
<path d="M480.458 270.505C478.366 271.567 478.366 273.292 480.458 274.354C482.55 275.416 485.928 275.416 488.02 274.354C490.113 273.292 490.113 271.567 488.02 270.505C485.928 269.444 482.55 269.444 480.458 270.505Z" fill="#FF0ACE"/>
<path d="M409.907 219.265C407.815 220.327 407.815 222.052 409.907 223.114C411.999 224.175 415.377 224.175 417.47 223.114C419.562 222.052 419.562 220.327 417.47 219.265C415.377 218.203 411.999 218.203 409.907 219.265Z" fill="#FF0ACE"/>
<path d="M446.666 238.026C444.574 239.088 444.574 240.813 446.666 241.875C448.758 242.937 452.136 242.937 454.228 241.875C456.321 240.813 456.321 239.088 454.228 238.026C452.136 236.964 448.758 236.964 446.666 238.026Z" fill="#FF0ACE"/>
<path d="M451.002 240.198C450.81 240.499 450.386 240.596 450.044 240.427L446.065 238.4L435.48 233.007L414.666 243.612L413.271 244.324L378.167 262.204L375.829 263.387L374.434 262.675L376.772 261.493L411.904 243.588L413.299 242.888L435.152 231.764C435.371 231.656 435.644 231.656 435.849 231.764L447.487 237.7L450.769 239.365C451.097 239.534 451.22 239.908 451.029 240.21L451.002 240.198Z" fill="#FF0ACE"/>
<path d="M324.847 176.277L322.112 177.7L293.161 192.722L304.99 198.742C305.209 198.851 305.346 199.056 305.346 199.273C305.346 199.49 305.209 199.695 304.99 199.804L280.334 212.364L277.995 213.546L269.202 218.022C269.092 218.082 268.969 218.107 268.86 218.107C268.614 218.107 268.381 217.998 268.258 217.793C268.067 217.491 268.176 217.117 268.504 216.948L276.587 212.822L278.925 211.64L303.226 199.261L291.411 193.24C291.192 193.132 291.069 192.927 291.055 192.709C291.055 192.492 291.192 192.287 291.397 192.179L320.621 177.001L324.122 175.191C324.45 175.022 324.888 175.119 325.079 175.408C325.271 175.71 325.161 176.084 324.833 176.253L324.847 176.277Z" fill="#FF0ACE"/>
<path d="M321.113 173.454C319.021 174.515 319.021 176.241 321.113 177.302C323.206 178.364 326.583 178.364 328.676 177.302C330.768 176.241 330.768 174.515 328.676 173.454C326.583 172.392 323.206 172.392 321.113 173.454Z" fill="#FF0ACE"/>
<path d="M393.032 216.816C390.94 217.877 390.94 219.603 393.032 220.664C395.124 221.726 398.502 221.726 400.595 220.664C402.687 219.603 402.687 217.877 400.595 216.816C398.502 215.754 395.124 215.754 393.032 216.816Z" fill="#FF0ACE"/>
<path d="M378.987 193.602C376.895 194.664 376.895 196.389 378.987 197.451C381.08 198.513 384.457 198.513 386.55 197.451C388.642 196.389 388.642 194.664 386.55 193.602C384.457 192.54 381.08 192.54 378.987 193.602Z" fill="#FF0ACE"/>
<path d="M368.101 171.282C366.009 172.344 366.009 174.069 368.101 175.131C370.194 176.192 373.572 176.192 375.664 175.131C377.756 174.069 377.756 172.344 375.664 171.282C373.572 170.22 370.194 170.22 368.101 171.282Z" fill="#FF0ACE"/>
<path d="M425.839 224.344C423.746 225.406 423.746 227.131 425.839 228.193C427.931 229.255 431.309 229.255 433.401 228.193C435.494 227.131 435.494 225.406 433.401 224.344C431.309 223.282 427.931 223.282 425.839 224.344Z" fill="#FF0ACE"/>
<path d="M351.049 195.774C348.956 196.836 348.956 198.561 351.049 199.623C353.141 200.684 356.519 200.684 358.611 199.623C360.703 198.561 360.703 196.836 358.611 195.774C356.519 194.712 353.141 194.712 351.049 195.774Z" fill="#FF0ACE"/>
<path d="M173.19 223.994L161.58 218.046C160.308 217.395 159.364 216.104 158.995 214.065L170.605 220.013C170.975 222.052 171.905 223.343 173.19 223.994Z" fill="#FFC9EC"/>
<mask id="mask4_2010_1522" style="mask-type:luminance" maskUnits="userSpaceOnUse" x="158" y="214" width="16" height="10">
<path d="M173.19 223.994L161.58 218.046C160.308 217.395 159.364 216.104 158.995 214.065L170.605 220.013C170.975 222.052 171.905 223.343 173.19 223.994Z" fill="white"/>
</mask>
<g mask="url(#mask4_2010_1522)">
<path d="M173.19 223.994L161.58 218.046C160.308 217.395 159.378 216.116 159.009 214.101L170.619 220.049C170.988 222.064 171.918 223.343 173.19 223.994Z" fill="#FFC9EC"/>
<path d="M170.619 220.049L159.009 214.101C159.009 214.101 159.009 214.077 159.009 214.065L170.619 220.013C170.619 220.013 170.619 220.037 170.619 220.049Z" fill="#FFC9EC"/>
</g>
<path d="M183.187 117.121L194.797 123.07C191.406 121.332 186.715 121.549 181.45 124.228L169.84 118.28C175.105 115.601 179.795 115.384 183.187 117.121Z" fill="#FFC9EC"/>
<mask id="mask5_2010_1522" style="mask-type:luminance" maskUnits="userSpaceOnUse" x="169" y="116" width="26" height="9">
<path d="M183.187 117.121L194.797 123.07C191.406 121.332 186.715 121.549 181.45 124.228L169.84 118.28C175.105 115.601 179.795 115.384 183.187 117.121Z" fill="white"/>
</mask>
<g mask="url(#mask5_2010_1522)">
<path d="M181.45 124.228L169.84 118.28C175.105 115.601 179.795 115.384 183.187 117.121L194.797 123.07C191.406 121.332 186.715 121.549 181.45 124.228Z" fill="#FFC9EC"/>
</g>
<path d="M170.619 220.013L159.009 214.053L147.85 151.604L159.46 157.564L170.619 220.013Z" fill="#FFC9EC"/>
<path d="M177.908 126.038L166.298 120.077L169.84 118.28L181.45 124.228L177.908 126.038Z" fill="#F1F0F0"/>
<path d="M159.46 157.564L147.85 151.616C145.949 140.986 154.742 125.977 166.312 120.089L177.922 126.038C166.353 131.925 157.56 146.934 159.46 157.564Z" fill="#F1F0F0"/>
<mask id="mask6_2010_1522" style="mask-type:luminance" maskUnits="userSpaceOnUse" x="147" y="120" width="31" height="38">
<path d="M159.46 157.564L147.85 151.616C145.949 140.986 154.742 125.977 166.312 120.089L177.922 126.038C166.353 131.925 157.56 146.934 159.46 157.564Z" fill="white"/>
</mask>
<g mask="url(#mask6_2010_1522)">
<path d="M159.46 157.564L147.85 151.616C147.275 148.382 147.686 144.751 148.862 141.083L160.472 147.031C159.296 150.687 158.886 154.33 159.46 157.564Z" fill="#F1F0F0"/>
<path d="M160.472 147.031L148.861 141.083C150.188 136.957 152.472 132.806 155.425 129.162L167.036 135.111C164.096 138.754 161.798 142.905 160.472 147.031Z" fill="#F1F0F0"/>
<path d="M167.022 135.111L155.412 129.162C157.669 126.375 160.294 123.89 163.166 121.935L174.776 127.884C171.905 129.838 169.265 132.323 167.022 135.111Z" fill="#F1F0F0"/>
<path d="M174.79 127.884L163.18 121.935C164.192 121.248 165.231 120.62 166.311 120.077L177.922 126.025C176.855 126.568 175.816 127.196 174.79 127.884Z" fill="#F1F0F0"/>
</g>
<path d="M181.45 124.228C193.02 118.34 201.868 124.361 200.049 136.884L189.327 210.469C188.479 216.285 184.24 221.135 180.001 223.307C175.748 225.466 171.495 224.947 170.619 220.013L159.46 157.564C157.56 146.934 166.353 131.925 177.922 126.038L181.464 124.24L181.45 124.228Z" fill="#FF88DB"/>
<path d="M194.291 124.759L202.374 128.909C198.941 127.148 194.182 127.401 188.944 130.067L180.862 125.917C186.114 123.238 190.859 122.997 194.291 124.759Z" fill="#FF0ACE"/>
<mask id="mask7_2010_1522" style="mask-type:luminance" maskUnits="userSpaceOnUse" x="180" y="123" width="23" height="8">
<path d="M194.291 124.759L202.374 128.909C198.941 127.148 194.182 127.401 188.944 130.067L180.862 125.917C186.114 123.238 190.859 122.997 194.291 124.759Z" fill="white"/>
</mask>
<g mask="url(#mask7_2010_1522)">
<path d="M188.944 130.067L180.862 125.917C186.114 123.238 190.859 122.997 194.291 124.759L202.374 128.909C198.941 127.148 194.182 127.401 188.944 130.067Z" fill="#FF0ACE"/>
</g>
<path d="M190.831 137.041C197.97 133.397 203.796 136.329 203.823 143.58C203.85 150.819 198.066 159.663 190.914 163.295C183.775 166.938 177.936 164.006 177.922 156.767C177.895 149.528 183.693 140.673 190.831 137.041Z" fill="#FF0ACE"/>
<path d="M175.638 169.52L167.556 165.37C164.165 163.633 162.059 159.941 162.045 154.68C162.018 144.111 170.442 131.226 180.876 125.905L188.958 130.055C178.524 135.364 170.1 148.25 170.127 158.831C170.141 164.079 172.247 167.771 175.638 169.508V169.52Z" fill="#FF0ACE"/>
<mask id="mask8_2010_1522" style="mask-type:luminance" maskUnits="userSpaceOnUse" x="162" y="125" width="27" height="45">
<path d="M175.638 169.52L167.556 165.37C164.165 163.633 162.059 159.941 162.045 154.68C162.018 144.111 170.442 131.226 180.876 125.905L188.958 130.055C178.524 135.364 170.1 148.25 170.127 158.831C170.141 164.079 172.247 167.771 175.638 169.508V169.52Z" fill="white"/>
</mask>
<g mask="url(#mask8_2010_1522)">
<path d="M175.638 169.52L167.556 165.37C164.547 163.826 162.551 160.737 162.127 156.394L170.209 160.544C170.633 164.887 172.63 167.976 175.638 169.52Z" fill="#FF0ACE"/>
<path d="M170.209 160.544L162.127 156.393C162.072 155.851 162.045 155.271 162.045 154.692C162.018 145.571 168.281 134.737 176.691 128.523L184.773 132.673C176.363 138.887 170.1 149.721 170.127 158.843C170.127 159.434 170.154 160.001 170.209 160.544Z" fill="#FF0ACE"/>
<path d="M184.774 132.673L176.691 128.523C178.032 127.534 179.44 126.653 180.876 125.917L188.958 130.067C187.522 130.803 186.127 131.672 184.774 132.673Z" fill="#FF0ACE"/>
</g>
<path d="M190.831 137.041L188.958 130.067C199.392 124.759 207.871 129.018 207.898 139.599C207.926 150.168 199.502 163.053 189.081 168.362C178.647 173.671 170.168 169.412 170.127 158.843C170.1 148.274 178.524 135.388 188.958 130.067L190.831 137.041C183.693 140.673 177.895 149.528 177.922 156.767C177.936 164.006 183.775 166.938 190.913 163.295C198.052 159.663 203.85 150.819 203.823 143.58C203.809 136.329 197.984 133.397 190.831 137.041Z" fill="#FF0ACE"/>
<mask id="mask9_2010_1522" style="mask-type:luminance" maskUnits="userSpaceOnUse" x="170" y="127" width="38" height="44">
<path d="M190.831 137.041L188.958 130.067C199.392 124.759 207.871 129.018 207.898 139.599C207.926 150.168 199.502 163.053 189.081 168.362C178.647 173.671 170.168 169.412 170.127 158.843C170.1 148.274 178.524 135.388 188.958 130.067L190.831 137.041C183.693 140.673 177.895 149.528 177.922 156.767C177.936 164.006 183.775 166.938 190.913 163.295C198.052 159.663 203.85 150.819 203.823 143.58C203.809 136.329 197.984 133.397 190.831 137.041Z" fill="white"/>
</mask>
<g mask="url(#mask9_2010_1522)">
<path d="M190.831 137.041L188.958 130.067C199.392 124.759 207.871 129.018 207.898 139.599C207.926 150.168 199.502 163.053 189.081 168.362C178.647 173.671 170.168 169.412 170.127 158.843C170.1 148.274 178.524 135.388 188.958 130.067L190.831 137.041C183.693 140.673 177.895 149.528 177.922 156.767C177.936 164.006 183.775 166.938 190.913 163.295C198.052 159.663 203.85 150.819 203.823 143.58C203.809 136.329 197.984 133.397 190.831 137.041Z" fill="#FF0ACE"/>
</g>
<path d="M168.772 9.76208L164.836 10.8257L185.799 71.2055L189.735 70.1419L168.772 9.76208Z" fill="#28001E"/>
<path d="M212.74 260.262C193.512 249.777 189.177 235.709 187.331 229.701C188.822 235.468 193.936 241.199 202.661 245.832C224.46 257.403 260.549 257.728 283.277 246.556C293.028 241.754 298.744 235.613 300.344 229.255C298.867 234.238 296.638 241.778 288.118 250.489C284.891 253.783 277.78 259.924 266.415 263.942C249.13 270.059 228.07 268.611 212.74 260.262Z" fill="#FF88DB"/>
<path d="M283.646 122.78C304.897 134.061 304.172 152.05 282.018 162.945C259.864 173.84 224.692 173.526 203.44 162.245C182.189 150.964 182.914 132.975 205.068 122.08C227.222 111.185 262.394 111.499 283.646 122.78Z" fill="#F1F0F0"/>
<path d="M187.289 229.532L170.154 163.476C172.151 171.173 178.797 178.629 190.134 184.65C218.455 199.695 265.348 200.105 294.873 185.579C307.55 179.341 314.962 171.366 317.054 163.102L300.343 229.243C298.73 235.601 293.027 241.742 283.276 246.544C260.562 257.716 224.459 257.403 202.661 245.82C193.936 241.187 188.821 235.456 187.289 229.52V229.532Z" fill="#FFC9EC"/>
<path d="M195.946 121.031C224.883 107.168 265.855 107.578 293.369 122.008C290.921 120.705 287.489 120.801 283.632 122.696C262.381 111.415 227.194 111.101 205.054 121.996C182.9 132.891 182.175 150.868 203.427 162.161C224.678 173.441 259.865 173.755 282.005 162.86C304.159 151.966 304.884 133.989 283.632 122.696C287.489 120.801 290.921 120.705 293.369 122.008C299.127 125.29 307.838 130.26 313.896 140.709C319.544 150.457 317.834 159.205 317.096 162.945C314.949 171.427 307.537 179.402 294.86 185.627C265.335 200.154 218.442 199.731 190.121 184.698C178.797 178.69 172.151 171.246 170.141 163.548C169.43 160.194 168.76 157.021 169.444 152.05C170.291 145.824 173.109 141.119 173.232 140.926C175.338 137.451 180.945 128.221 195.933 121.043L195.946 121.031Z" fill="#FFC9EC"/>
<path d="M274.374 41.2439C290.675 49.8946 290.114 63.6971 273.129 72.0461C256.145 80.4073 229.15 80.166 212.849 71.5032C196.548 62.8525 197.108 49.0621 214.093 40.701C231.078 32.3398 258.073 32.5811 274.374 41.2439Z" fill="#F1F0F0"/>
<path d="M191.324 144.437C165.081 130.116 159.323 111.161 159.118 97.781C159.159 108.531 166.981 119.269 182.681 127.606C215.037 144.787 268.616 145.269 302.34 128.68C319.694 120.138 328.418 108.748 328.377 97.3467C328.09 104.344 327.653 107.964 324.466 115.806C321.964 121.947 317.506 127.172 315.099 129.983C313.977 131.298 303.57 142.989 283.481 149.902C248.637 161.871 212.096 155.79 191.324 144.449V144.437Z" fill="#FFC9EC"/>
<path d="M193.744 38.5414C209.115 31.1575 226.36 27.5259 245.013 27.7431C264.172 27.9603 281.375 31.9779 296.131 39.6996C290.606 36.7678 282.893 37.0453 274.374 41.2439C258.073 32.5933 231.091 32.352 214.093 40.701C197.108 49.0621 196.548 62.8526 212.848 71.5033C229.149 80.154 256.131 80.3953 273.129 72.0462C290.114 63.6851 290.675 49.8946 274.374 41.2439C282.893 37.0453 290.606 36.7678 296.131 39.6996C303.912 44.1275 327.584 57.6163 328.336 86.3554C328.377 97.7449 319.653 109.146 302.299 117.689C268.575 134.278 214.995 133.808 182.64 116.627C166.94 108.29 159.118 97.5398 159.077 86.8018C159.255 82.6273 159.446 77.8857 161.525 72.1065C163.973 65.2535 166.093 62.3096 169.593 57.4353C172.356 53.5866 180.958 44.6946 193.744 38.5534V38.5414Z" fill="#F1F0F0"/>
<path d="M260.357 128.957C232.951 131.805 203.413 127.654 182.64 116.615C167.023 108.326 159.2 97.6484 159.077 86.9707C159.05 80.0333 162.291 73.6267 167.747 68.499C167.857 78.0787 174.872 87.6464 188.876 95.0905C207.515 104.984 234.004 108.7 258.579 106.154C259.673 113.997 260.329 122.02 260.357 128.957Z" fill="#85006A"/>
<path d="M159.118 97.7811L159.077 86.8019C159.118 97.5519 166.94 108.29 182.64 116.627C214.995 133.808 268.575 134.29 302.299 117.689C319.653 109.146 328.377 97.757 328.336 86.3555L328.377 97.3347C328.418 108.724 319.694 120.126 302.34 128.668C268.616 145.257 215.037 144.787 182.681 127.594C166.981 119.257 159.159 108.507 159.118 97.7691V97.7811Z" fill="#FFC9EC"/>
<path d="M172.834 98.1068C171.166 102.257 168.322 102.535 166.352 98.7342C163.057 92.4 166.407 84.7507 170.687 85.8366C171.467 86.0296 171.877 86.4278 172.301 86.85C175.036 90.2886 173.573 96.2729 172.834 98.1068Z" fill="#FF0ACE"/>
<path d="M220.808 116.88C219.563 123.106 210.688 124.155 206.202 118.605C201.526 112.814 206.654 106.13 213.204 106.854C213.45 106.878 213.765 106.938 213.997 106.975C219.768 108.447 221.45 113.659 220.808 116.88Z" fill="#FF0ACE"/>
<path d="M299.851 90.0955C299.851 86.4036 296.911 84.9196 293.3 86.7535C289.69 88.5874 286.75 93.0756 286.75 96.7675C286.75 100.459 289.69 101.943 293.3 100.11C296.924 98.2636 299.851 93.7874 299.851 90.0955Z" fill="#4D003D"/>
<path d="M294.149 95.3318C293.52 95.3318 292.904 95.0785 292.494 94.6079C291.81 93.7996 292.002 92.6654 292.904 92.0622L340.672 60.4275C341.575 59.8242 342.874 59.981 343.558 60.7894C344.241 61.5857 344.05 62.7319 343.147 63.3351L295.38 94.9699C295.01 95.2112 294.573 95.3318 294.149 95.3318Z" fill="#28001E"/>
<path d="M354.047 59.6191C354.047 54.2019 349.069 49.8223 342.942 49.8223C336.816 49.8223 331.838 54.214 331.838 59.6191C331.838 65.0243 336.816 69.416 342.942 69.416C349.069 69.416 354.047 65.0243 354.047 59.6191Z" fill="#4D003D"/>
<path d="M176.91 10.2969C176.91 4.87964 171.932 0.5 165.806 0.5C159.679 0.5 154.701 4.8917 154.701 10.2969C154.701 15.702 159.679 20.0938 165.806 20.0938C171.932 20.0938 176.91 15.702 176.91 10.2969Z" fill="#4D003D"/>
<path d="M309.67 159.941L317.752 164.091C314.32 162.329 309.561 162.583 304.323 165.249L296.241 161.099C301.493 158.42 306.238 158.179 309.67 159.941Z" fill="#FF0ACE"/>
<mask id="mask10_2010_1522" style="mask-type:luminance" maskUnits="userSpaceOnUse" x="296" y="158" width="22" height="8">
<path d="M309.67 159.941L317.752 164.091C314.32 162.329 309.561 162.583 304.323 165.249L296.241 161.099C301.493 158.42 306.238 158.179 309.67 159.941Z" fill="white"/>
</mask>
<g mask="url(#mask10_2010_1522)">
<path d="M304.323 165.249L296.241 161.099C301.493 158.42 306.238 158.179 309.67 159.941L317.752 164.091C314.32 162.329 309.561 162.583 304.323 165.249Z" fill="#FF0ACE"/>
</g>
<path d="M306.197 172.223C313.335 168.579 319.161 171.511 319.188 178.762C319.216 186.001 313.431 194.845 306.279 198.476C299.127 202.12 293.301 199.188 293.287 191.949C293.26 184.71 299.058 175.854 306.197 172.223Z" fill="#FF0ACE"/>
<path d="M291.003 204.702L282.921 200.552C279.53 198.814 277.424 195.122 277.41 189.874C277.383 179.305 285.807 166.419 296.241 161.099L304.323 165.249C293.889 170.558 285.465 183.443 285.492 194.024C285.506 199.273 287.612 202.965 291.003 204.702Z" fill="#FF0ACE"/>
<mask id="mask11_2010_1522" style="mask-type:luminance" maskUnits="userSpaceOnUse" x="277" y="161" width="28" height="44">
<path d="M291.003 204.702L282.921 200.552C279.53 198.814 277.424 195.122 277.41 189.874C277.383 179.305 285.807 166.419 296.241 161.099L304.323 165.249C293.889 170.558 285.465 183.443 285.492 194.024C285.506 199.273 287.612 202.965 291.003 204.702Z" fill="white"/>
</mask>
<g mask="url(#mask11_2010_1522)">
<path d="M291.003 204.702L282.921 200.552C279.913 199.007 277.916 195.919 277.492 191.575L285.574 195.726C285.998 200.069 287.995 203.158 291.003 204.702Z" fill="#FF0ACE"/>
<path d="M285.588 195.726L277.506 191.575C277.451 191.032 277.424 190.453 277.424 189.874C277.397 180.753 283.66 169.918 292.07 163.705L300.152 167.855C291.742 174.069 285.479 184.903 285.506 194.024C285.506 194.616 285.533 195.183 285.588 195.726Z" fill="#FF0ACE"/>
<path d="M300.152 167.843L292.07 163.693C293.41 162.703 294.819 161.823 296.255 161.087L304.337 165.237C302.901 165.973 301.506 166.842 300.152 167.843Z" fill="#FF0ACE"/>
</g>
<path d="M306.197 172.223L304.323 165.249C314.757 159.941 323.236 164.212 323.263 174.781C323.291 185.35 314.867 198.223 304.446 203.544C294.012 208.853 285.533 204.594 285.492 194.024C285.465 183.455 293.889 170.57 304.323 165.249L306.197 172.223C299.058 175.854 293.26 184.71 293.287 191.949C293.301 199.188 299.14 202.12 306.279 198.477C313.417 194.845 319.216 186.001 319.188 178.762C319.175 171.511 313.349 168.579 306.197 172.223Z" fill="#FF0ACE"/>
<mask id="mask12_2010_1522" style="mask-type:luminance" maskUnits="userSpaceOnUse" x="285" y="162" width="39" height="44">
<path d="M306.197 172.223L304.323 165.249C314.757 159.941 323.236 164.212 323.263 174.781C323.291 185.35 314.867 198.223 304.446 203.544C294.012 208.853 285.533 204.594 285.492 194.024C285.465 183.455 293.889 170.57 304.323 165.249L306.197 172.223C299.058 175.854 293.26 184.71 293.287 191.949C293.301 199.188 299.14 202.12 306.279 198.477C313.417 194.845 319.216 186.001 319.188 178.762C319.175 171.511 313.349 168.579 306.197 172.223Z" fill="white"/>
</mask>
<g mask="url(#mask12_2010_1522)">
<path d="M306.197 172.223L304.323 165.249C314.757 159.941 323.236 164.212 323.263 174.781C323.291 185.35 314.867 198.223 304.446 203.544C294.012 208.853 285.533 204.594 285.492 194.024C285.465 183.455 293.889 170.57 304.323 165.249L306.197 172.223C299.058 175.854 293.26 184.71 293.287 191.949C293.301 199.188 299.14 202.12 306.279 198.477C313.417 194.845 319.216 186.001 319.188 178.762C319.175 171.511 313.349 168.579 306.197 172.223Z" fill="#FF0ACE"/>
</g>
<path d="M309.765 270.023L298.155 264.075C296.883 263.423 295.94 262.132 295.57 260.093L307.181 266.041C307.55 268.08 308.48 269.371 309.765 270.023Z" fill="#FFC9EC"/>
<mask id="mask13_2010_1522" style="mask-type:luminance" maskUnits="userSpaceOnUse" x="295" y="260" width="15" height="11">
<path d="M309.765 270.023L298.155 264.075C296.883 263.423 295.94 262.132 295.57 260.093L307.181 266.041C307.55 268.08 308.48 269.371 309.765 270.023Z" fill="white"/>
</mask>
<g mask="url(#mask13_2010_1522)">
<path d="M309.765 270.023L298.155 264.074C296.883 263.423 295.953 262.144 295.584 260.129L307.194 266.077C307.564 268.092 308.493 269.371 309.765 270.023Z" fill="#FFC9EC"/>
<path d="M307.194 266.077L295.584 260.129C295.584 260.129 295.584 260.105 295.584 260.093L307.194 266.041C307.194 266.041 307.194 266.065 307.194 266.077Z" fill="#FFC9EC"/>
</g>
<path d="M319.762 163.15L331.372 169.098C327.981 167.361 323.29 167.578 318.025 170.256L306.415 164.308C311.68 161.63 316.371 161.412 319.762 163.15Z" fill="#FFC9EC"/>
<mask id="mask14_2010_1522" style="mask-type:luminance" maskUnits="userSpaceOnUse" x="306" y="162" width="26" height="9">
<path d="M319.762 163.15L331.372 169.098C327.981 167.361 323.29 167.578 318.025 170.256L306.415 164.308C311.68 161.63 316.371 161.412 319.762 163.15Z" fill="white"/>
</mask>
<g mask="url(#mask14_2010_1522)">
<path d="M318.025 170.256L306.415 164.308C311.68 161.63 316.371 161.412 319.762 163.15L331.372 169.098C327.981 167.361 323.29 167.578 318.025 170.256Z" fill="#FFC9EC"/>
</g>
<path d="M307.181 266.041L295.571 260.081L284.412 197.632L296.022 203.592L307.181 266.041Z" fill="#FFC9EC"/>
<path d="M314.483 172.066L302.873 166.106L306.415 164.308L318.025 170.256L314.483 172.066Z" fill="#F1F0F0"/>
<path d="M296.022 203.592L284.412 197.644C282.511 187.015 291.304 172.006 302.873 166.118L314.484 172.066C302.914 177.954 294.121 192.963 296.022 203.592Z" fill="#F1F0F0"/>
<mask id="mask15_2010_1522" style="mask-type:luminance" maskUnits="userSpaceOnUse" x="284" y="166" width="31" height="38">
<path d="M296.022 203.592L284.412 197.644C282.511 187.015 291.304 172.006 302.873 166.118L314.484 172.066C302.914 177.954 294.121 192.963 296.022 203.592Z" fill="white"/>
</mask>
<g mask="url(#mask15_2010_1522)">
<path d="M296.022 203.592L284.411 197.644C283.837 194.41 284.247 190.779 285.423 187.111L297.034 193.059C295.858 196.715 295.447 200.359 296.022 203.592Z" fill="#F1F0F0"/>
<path d="M297.033 193.059L285.423 187.111C286.749 182.985 289.033 178.834 291.987 175.191L303.597 181.139C300.657 184.783 298.36 188.933 297.033 193.059Z" fill="#F1F0F0"/>
<path d="M303.598 181.139L291.987 175.191C294.244 172.404 296.869 169.918 299.741 167.964L311.352 173.912C308.48 175.866 305.84 178.352 303.598 181.139Z" fill="#F1F0F0"/>
<path d="M311.352 173.912L299.741 167.964C300.753 167.276 301.806 166.649 302.873 166.106L314.483 172.054C313.417 172.597 312.377 173.224 311.352 173.912Z" fill="#F1F0F0"/>
</g>
<path d="M318.026 170.256C329.595 164.368 338.443 170.389 336.624 182.912L325.902 256.498C325.055 262.313 320.815 267.163 316.576 269.335C312.323 271.495 308.07 270.976 307.195 266.041L296.036 203.592C294.135 192.963 302.928 177.966 314.497 172.066L318.039 170.268L318.026 170.256Z" fill="#FF88DB"/>
</g>
<defs>
<filter id="filter0_d_2010_1522" x="0" y="0.5" width="502" height="446" filterUnits="userSpaceOnUse" color-interpolation-filters="sRGB">
<feFlood flood-opacity="0" result="BackgroundImageFix"/>
<feColorMatrix in="SourceAlpha" type="matrix" values="0 0 0 0 0 0 0 0 0 0 0 0 0 0 0 0 0 0 127 0" result="hardAlpha"/>
<feOffset dy="4"/>
<feGaussianBlur stdDeviation="2"/>
<feComposite in2="hardAlpha" operator="out"/>
<feColorMatrix type="matrix" values="0 0 0 0 0 0 0 0 0 0 0 0 0 0 0 0 0 0 0.25 0"/>
<feBlend mode="normal" in2="BackgroundImageFix" result="effect1_dropShadow_2010_1522"/>
<feBlend mode="normal" in="SourceGraphic" in2="effect1_dropShadow_2010_1522" result="shape"/>
</filter>
</defs>
</svg>
